<svg width="197" height="72" viewBox="0 0 197 72" fill="none" xmlns="http://www.w3.org/2000/svg">
<path d="M193.919 52.8732V43.9263C193.919 42.8079 193.296 41.8823 191.778 41.8823C190.921 41.8823 190.298 42.1137 189.792 42.6151C189.948 43.0393 189.987 43.4635 189.987 44.3505V52.8732H187.106V43.9263C187.106 42.885 186.834 41.8052 184.965 41.8052C184.03 41.8052 183.68 41.9595 183.174 42.1909V52.8732H180.293V41.0725C181.383 40.6097 182.94 40.0312 185.121 40.0312C186.911 40.0312 188.079 40.4555 188.819 41.0725C189.676 40.4555 190.805 40.0312 192.44 40.0312C195.476 40.0312 196.8 41.7667 196.8 43.9263V52.8732H193.919Z" fill="white"/>
<path d="M163.554 52.8722V44.1181C163.554 42.884 163.048 41.997 161.413 41.997C160.517 41.997 159.894 42.2284 159.272 42.6141V52.8722H156.391V36.0195H159.272V40.6858C160.011 40.3388 161.101 40.1074 162.114 40.1074C165.267 40.1074 166.396 41.997 166.396 43.8867V52.8337H163.554V52.8722Z" fill="white"/>
<path d="M128.475 38.4885C127.385 38.4885 126.801 37.7943 126.801 36.9845C126.801 36.1746 127.385 35.4805 128.475 35.4805C129.526 35.4805 130.149 36.1746 130.149 36.9845C130.149 37.7558 129.526 38.4885 128.475 38.4885Z" fill="white"/>
<path d="M139.14 52.8732V43.9263C139.14 42.885 138.712 41.8052 136.882 41.8052C135.948 41.8052 135.481 41.9595 134.936 42.1909V52.8732H132.055V41.0725C133.145 40.6097 134.858 40.0312 136.999 40.0312C140.775 40.0312 142.021 41.8438 142.021 43.8491V52.8347H139.14V52.8732Z" fill="white"/>
<path d="M127.035 52.8728V40.3008H129.916V52.8728H127.035Z" fill="white"/>
<path d="M123.257 53.0267C120.765 53.0267 119.753 51.6384 119.753 49.5945V42.113H118.352V40.3004H119.753V37.7552L122.634 36.9453V40.2619H124.659V42.0744H122.634V49.5559C122.634 50.6743 123.257 51.0214 124.036 51.0214C124.269 51.0214 124.62 51.0214 124.892 50.9828V52.8725C124.62 52.911 123.88 53.0267 123.257 53.0267Z" fill="white"/>
<path d="M115.589 53.0267C113.097 53.0267 112.085 51.6384 112.085 49.5945V42.113H110.684V40.3004H112.085V37.7552L114.966 36.9453V40.2619H116.991V42.0744H114.966V49.5559C114.966 50.6743 115.589 51.0214 116.368 51.0214C116.601 51.0214 116.952 51.0214 117.224 50.9828V52.8725C116.952 52.911 116.212 53.0267 115.589 53.0267Z" fill="white"/>
<path d="M94.6432 52.8705L88.6088 42.7666C88.2195 42.1495 87.947 41.5325 87.6355 40.7998H87.5966C87.6744 41.6096 87.7523 42.2652 87.7523 42.8437V52.8705H84.9492V36.8276H87.908L93.5142 46.2759C93.8257 46.8544 94.1371 47.3557 94.4096 48.0885H94.4486C94.3707 47.2786 94.3707 46.7387 94.3707 46.1602V36.7891H97.1738V52.8319H94.6432V52.8705Z" fill="white"/>
<path d="M173.283 40.0703C171.298 40.0703 169.78 40.6488 168.923 40.9959L169.585 42.7313C170.325 42.3456 171.531 41.9214 172.738 41.9214C174.257 41.9214 175.23 42.3456 175.23 43.9653V44.6595C174.996 44.6209 174.14 44.4667 173.4 44.4667C170.48 44.4667 168.105 45.9707 168.105 48.9402C168.105 51.3697 169.741 53.1823 173.361 53.1823C175.347 53.1823 176.943 52.7966 178.033 52.2953V44.3895C178.072 41.1887 175.931 40.0703 173.283 40.0703ZM175.269 51.2926C174.919 51.4469 174.218 51.6397 173.556 51.6397C172.038 51.6397 170.986 50.6756 170.986 48.9402C170.986 47.3204 171.882 46.1635 173.634 46.1635C174.451 46.1635 174.957 46.3178 175.23 46.3563V51.2926H175.269Z" fill="white"/>
<path d="M149.886 40.0703C145.798 40.0703 143.773 42.6541 143.773 46.7034C143.773 50.637 145.798 52.9509 148.873 52.9509C150.003 52.9509 150.859 52.758 151.365 52.4881V53.298C151.365 54.9948 150.47 56.0746 148.367 56.0746C146.966 56.0746 146.07 55.689 145.292 55.3804L144.474 57.1544C145.409 57.6557 146.927 58.08 148.873 58.08C152.027 58.08 154.207 56.3445 154.207 53.028V40.9573C153.312 40.4945 151.793 40.0703 149.886 40.0703ZM151.365 50.6756C150.937 50.9069 150.392 51.0998 149.73 51.0998C147.706 51.0998 146.81 49.5958 146.81 46.7034C146.81 43.6954 147.744 41.8443 149.886 41.8443C150.509 41.8443 150.976 41.8828 151.404 42.1142V50.6756H151.365Z" fill="white"/>
<path d="M104.416 40.0703C100.834 40.0703 99.043 42.7698 99.043 46.6263C99.043 50.4056 100.834 53.1437 104.416 53.1437C107.997 53.1437 109.788 50.4442 109.788 46.6263C109.788 42.7698 107.997 40.0703 104.416 40.0703ZM104.571 51.3697C102.586 51.3697 102.274 48.8245 102.274 46.5877C102.274 44.3124 102.586 41.7672 104.571 41.7672C106.557 41.7672 106.868 44.2738 106.868 46.5877C106.907 48.863 106.557 51.3697 104.571 51.3697Z" fill="white"/>
<path d="M171.805 20.7096C170.754 20.7096 170.52 21.2109 170.52 21.9822V22.3678H172.039V23.9104H170.52V30.9677H168.223V23.9104H167.289V22.3678H168.223V21.7508C168.223 20.0154 169.352 19.0898 171.26 19.0898C171.649 19.0898 171.922 19.0898 172.272 19.1284V20.671H171.805V20.7096Z" fill="white"/>
<path d="M150.278 34.4384C148.993 34.4384 147.981 34.1684 147.319 33.8214L147.825 32.4716C148.331 32.703 148.993 32.9344 149.967 32.9344C151.407 32.9344 151.874 32.2788 151.874 31.1604V30.6205C151.602 30.7748 151.018 31.0061 150.083 31.0061C147.942 31.0061 147.008 29.9649 147.008 28.2295V22.4062H149.305V28.1138C149.305 28.8851 149.577 29.5021 150.706 29.5021C151.251 29.5021 151.602 29.3479 151.874 29.2322V22.4062H154.171V30.6976C154.171 33.3971 152.536 34.4384 150.278 34.4384Z" fill="white"/>
<path d="M144.125 31.1222C142.451 31.1222 141.594 30.2352 141.594 28.7698V23.9492H140.621V22.4066H141.594V20.6327L143.891 20.0156V22.4066H145.293V23.9492H143.891V28.577C143.891 29.3482 144.281 29.5796 144.826 29.5796C145.098 29.5796 145.332 29.5796 145.604 29.5411V30.968C145.41 31.0065 144.943 31.1222 144.125 31.1222Z" fill="white"/>
<path d="M136.766 31.0061V22.4062H139.063V31.0061H136.766Z" fill="white"/>
<path d="M132.018 31.1623C130.889 31.1623 129.994 30.8924 129.332 30.5453L129.877 29.1184C130.344 29.3498 130.928 29.6197 131.668 29.6197C132.524 29.6197 133.031 29.3498 133.031 28.6942C133.031 28.0772 132.641 27.8072 131.629 27.4216C129.955 26.766 129.605 25.7633 129.605 24.7992C129.605 23.4108 130.656 22.2539 132.563 22.2539C133.615 22.2539 134.432 22.5239 135.016 22.8709L134.393 24.2207C134.121 24.0664 133.498 23.7579 132.836 23.7579C132.057 23.7579 131.668 24.105 131.668 24.6449C131.668 25.2619 132.291 25.4933 133.069 25.8018C134.821 26.4574 135.211 27.4601 135.211 28.5399C135.211 30.0439 133.926 31.1623 132.018 31.1623Z" fill="white"/>
<path d="M128.591 23.9473C128.435 23.9088 127.929 23.8316 127.54 23.8316C127.15 23.8316 126.8 23.8702 126.567 23.9473V31.0046H124.27V22.9061C124.62 22.7518 125.944 22.2891 127.462 22.2891C128.357 22.2891 128.591 22.3276 128.902 22.4048L128.591 23.9473Z" fill="white"/>
<path d="M104.453 21.3266C103.596 21.3266 103.207 20.8252 103.207 20.2082C103.207 19.5912 103.596 19.0898 104.453 19.0898C105.231 19.0898 105.699 19.5912 105.699 20.2082C105.699 20.8252 105.231 21.3266 104.453 21.3266Z" fill="white"/>
<path d="M111.889 31.0061H109.709L106.75 22.4062H109.203L110.332 26.4555C110.449 26.8412 110.721 27.8439 110.838 28.3452H110.877C110.916 27.8439 111.227 26.8412 111.344 26.4555L112.512 22.4062H114.809L111.889 31.0061Z" fill="white"/>
<path d="M103.246 31.0061V22.4062H105.543V31.0061H103.246Z" fill="white"/>
<path d="M137.972 21.3266C137.116 21.3266 136.727 20.8252 136.727 20.2082C136.727 19.5912 137.116 19.0898 137.972 19.0898C138.751 19.0898 139.218 19.5912 139.218 20.2082C139.179 20.8252 138.751 21.3266 137.972 21.3266Z" fill="white"/>
<path d="M99.3157 31.0081V24.9534C99.3157 24.3364 99.0432 23.7194 97.9141 23.7194C97.3691 23.7194 97.0187 23.8351 96.7462 23.9507V31.0081H94.4492V22.9095C95.4225 22.5239 96.5905 22.2539 98.0309 22.2539C100.678 22.2539 101.613 23.5265 101.613 24.992V31.0466H99.3157V31.0081Z" fill="white"/>
<path d="M88.8423 31.1613C86.5842 31.1613 84.9102 30.0043 84.9102 27.729V20.0547H87.3239V27.729C87.3239 28.7703 87.869 29.3487 88.8423 29.3487C89.7766 29.3487 90.3606 28.8088 90.3606 27.729V20.0547H92.7744V27.729C92.7744 30.0043 91.1003 31.1613 88.8423 31.1613Z" fill="white"/>
<path d="M162.581 22.2148C160.011 22.2148 158.766 24.1045 158.766 26.6498C158.766 29.2722 160.011 31.1618 162.581 31.1618C165.15 31.1618 166.396 29.2722 166.396 26.6498C166.396 24.1045 165.15 22.2148 162.581 22.2148ZM162.581 29.6578C161.413 29.6578 161.14 28.308 161.14 26.6498C161.14 25.0301 161.413 23.7189 162.581 23.7189C163.749 23.7189 164.06 25.0686 164.06 26.6498C164.021 28.3466 163.749 29.6578 162.581 29.6578Z" fill="white"/>
<path d="M122.791 26.4955C122.791 23.7574 121.389 22.2148 119.014 22.2148C116.601 22.2148 115.16 23.8731 115.16 26.6498C115.16 29.5421 116.795 31.1618 119.365 31.1618C120.727 31.1618 121.74 30.8919 122.44 30.5062L121.895 29.0022C121.272 29.2722 120.611 29.5035 119.598 29.5035C118.547 29.5035 117.574 29.0408 117.418 27.3825H122.791V26.4955ZM120.611 25.9556H117.34C117.34 24.2973 118.002 23.6803 118.975 23.6803C119.871 23.6803 120.611 24.2202 120.611 25.8399V25.9556Z" fill="white"/>
<path d="M72.6856 0H0V72H72.6856V0Z" fill="white"/>
<path d="M49.0916 17.3169C47.4565 16.4299 45.8992 15.7357 43.7969 15.2344V19.515C45.6656 19.9392 47.4565 20.5948 49.0916 21.3276V17.3169Z" fill="#0E202E"/>
<path d="M41.8905 31.3516C41.3844 31.3516 40.9561 31.7758 40.9561 32.3157L40.6836 41.0698H43.1752L42.8638 32.3157C42.8248 31.7372 42.4745 31.3516 41.8905 31.3516Z" fill="#0E202E"/>
<path d="M44.1082 55.4569C41.4609 55.4569 39.5922 54.8399 37.1784 53.6444C34.6089 52.3332 31.7279 51.2148 28.0684 51.2148C24.6424 51.2148 20.9828 52.4103 18.1797 56.5368C21.5278 54.4928 24.6034 53.8372 27.2119 53.8372C29.976 53.8372 32.1173 54.5314 34.2585 55.6498C36.7112 56.9224 38.8135 57.8094 41.8891 57.8094C44.8479 57.8094 48.1961 56.691 51.077 52.9503C48.78 54.8399 46.3273 55.4569 44.1082 55.4569Z" fill="#0E202E"/>
<path d="M29.4696 49.7865C31.8055 49.7865 34.5307 50.4421 37.6063 52.1003V43.4619L36.3216 41.8807V29.8486L38.8132 26.0307L37.762 29.6944C38.4628 29.6172 39.1636 29.5401 39.9422 29.5401C42.3949 29.5401 44.6529 29.9643 46.5606 30.697L49.0522 28.4217V22.2514C47.4171 21.5187 45.6262 20.9016 43.7575 20.4389C42.6285 20.1689 41.4216 19.9761 40.1758 19.8218V14.4614C38.8521 14.2685 37.4895 14.1914 36.088 14.1914C34.7643 14.1914 33.4406 14.2685 32.1948 14.4228V19.5133C30.9879 19.6676 29.781 19.899 28.652 20.1689V15.1555C26.6276 15.6954 24.7199 16.5053 22.968 17.4694V27.9204L25.3817 30.1957L24.681 41.9193L22.7344 43.8475V50.6349L23.3962 51.3291C25.0313 50.4806 27.0558 49.7865 29.4696 49.7865ZM29.1192 32.3167C29.1192 31.7768 29.5474 31.3526 30.0535 31.3526C30.5597 31.3526 30.9879 31.7768 30.9879 32.3167L31.2994 41.0709H28.8077L29.1192 32.3167Z" fill="#0E202E"/>
</svg>
