<?xml version="1.0" encoding="utf-8"?>
<!-- Generator: Adobe Illustrator 15.0.0, SVG Export Plug-In . SVG Version: 6.00 Build 0)  -->
 
<svg version="1.1" id="Layer_1" xmlns="http://www.w3.org/2000/svg" xmlns:xlink="http://www.w3.org/1999/xlink" x="0px" y="0px"
	 width="80px" height="80px" viewBox="0 0 80 80" enable-background="new 0 0 80 80" xml:space="preserve">
<g display="none">
	<path display="inline" fill="#2C3E50" d="M40.8,61.4c0-9.801,7.9-17.7,17.7-17.7S76.2,51.6,76.2,61.4c0,9.8-7.9,17.699-17.7,17.699
		S40.8,71.2,40.8,61.4z"/>
	<path display="inline" fill="#FFFFFF" d="M44.6,61.4c0-7.7,6.2-13.9,13.9-13.9s13.9,6.2,13.9,13.9C72.4,69.1,66.2,75.3,58.5,75.3
		S44.6,69.1,44.6,61.4z"/>
	<path display="inline" fill="#DDDCDC" d="M53.6,48.9c0,0,18.601-4.101,17.5,17L72,65c0,0,2.3-9.3-5.2-15.1
		C66.8,49.8,62,45.5,53.6,48.9z"/>
	<path display="inline" fill="#F39C12" d="M57.5,51c4.4,0,8.6,4,9.7,7.7l2.6-0.9c-1.2-5.1-6-8.7-11.3-8.7
		c-6.2,0-11.2,5.2-11.2,11.601c0,1.3,0.2,2.5,0.601,3.7c0.1-0.801,0-1.801-0.101-2.7C47.7,56.8,51.3,51,57.5,51z"/>
	<circle display="inline" fill="#2C3E50" cx="58.5" cy="61.5" r="3.2"/>
	<circle display="inline" fill="#E34437" cx="58.5" cy="61.5" r="1.6"/>
	<path display="inline" fill="#E34437" d="M58.4,62.9c0,0-1.4,0.199-1.4-1l6.1-7.101c0,0,1.4-0.7,1.5,0.8L58.4,62.9z"/>
</g>
<g display="none">
	<rect x="45.5" y="48.9" display="inline" fill="#2C3E50" width="8.7" height="29.699"/>
	<rect x="47" y="51.6" display="inline" fill="#FFFFFF" width="5.8" height="3.301"/>
	<rect x="47" y="71.3" display="inline" fill="#FFFFFF" width="5.8" height="1.601"/>
	<rect x="47" y="74.1" display="inline" fill="#FFFFFF" width="5.8" height="1.601"/>
	<rect x="55.6" y="53.8" display="inline" fill="#2C3E50" width="8.7" height="24.7"/>
	<rect x="57" y="56.5" display="inline" fill="#FFFFFF" width="5.8" height="3.3"/>
	<rect x="57" y="71.3" display="inline" fill="#FFFFFF" width="5.8" height="1.601"/>
	<rect x="57" y="74.1" display="inline" fill="#FFFFFF" width="5.8" height="1.601"/>
	
		<rect x="66.901" y="48.896" transform="matrix(-0.9728 0.2315 -0.2315 -0.9728 155.3226 109.2677)" display="inline" fill="#2C3E50" width="8.699" height="29.699"/>
	
		<rect x="65.899" y="51.907" transform="matrix(-0.9729 0.2313 -0.2313 -0.9729 148.1216 89.7458)" display="inline" fill="#FFFFFF" width="5.8" height="3.301"/>
	
		<rect x="70.196" y="71.101" transform="matrix(-0.9729 0.231 -0.231 -0.9729 160.8252 124.9704)" display="inline" fill="#FFFFFF" width="5.799" height="1.6"/>
	
		<rect x="70.899" y="73.802" transform="matrix(-0.9729 0.2313 -0.2313 -0.9729 162.8554 130.106)" display="inline" fill="#FFFFFF" width="5.8" height="1.6"/>
</g>
<g display="none">
	<polygon display="inline" fill="#F7D752" points="61.1,47.2 65.7,56.4 75.9,57.9 68.5,65.1 70.3,75.2 61.1,70.4 52,75.2 53.8,65.1 
		46.4,57.9 56.6,56.4 	"/>
	<path display="inline" fill="#F1C40F" d="M71.6,77L61.2,71.5L50.7,77l2-11.6l-8.4-8.2L56,55.5l5.2-10.6l5.2,10.6L78,57.2l-8.4,8.2
		L71.6,77z M48.6,58.6L54.9,64.7l-1.5,8.7l7.8-4.101L69,73.4l-1.5-8.7l6.3-6.101L65,57.3L61.1,49.4L57.2,57.3L48.6,58.6z"/>
</g>
<g>
	<g>
		<g>
			<g>
				<path fill="#2C3E50" d="M66.387,52.6c-3.4-5.5-9.801-9.899-17.801-12.199c-4.801,6.699-10.1,7.5-12.9,7.5
					c-3.2,0-8.2-0.9-12.9-7.301c-7.9,2.4-14.2,6.801-17.4,12.4c-2.6,2-4.6,6.8-3.2,9c0.3,0.5,0.6,0.9,1,1.5c0.1,0.6,0.2,1.2,0.3,1.8
					c3.6,5.3,13.8,9.4,26.4,10.3h11.399c13.5-1,24.201-5.399,27.301-11.199c0-0.2,0.1-0.301,0.1-0.5c0.1-0.2,0.201-0.301,0.301-0.5
					C71.186,60.5,69.186,54.7,66.387,52.6z"/>
			</g>
		</g>
		<path fill="#E5B451" d="M53.285,18.9c0,11.199-8.799,24.199-17.299,24.199c-8.5,0-17.3-13-17.3-24.199
			c0-11.2,8.8-18.301,17.3-18.301C44.387,0.6,53.285,7.7,53.285,18.9z"/>
	</g>
	<g>
		<polygon fill="#F39C12" points="39.186,74 42.086,66.9 45.586,68 48.686,73 42.086,76.2 		"/>
		<path fill="#F39C12" d="M41.986,76.4L38.886,74l3.001-7.5l3.799,1.2l3.201,5.399L41.986,76.4z M39.386,73.9l2.7,1.899l6.301-2.899
			l-2.9-4.801l-3.201-1L39.386,73.9z"/>
		<polygon fill="#C0392B" points="36.986,78.9 39.186,74 42.086,76.2 		"/>
		<path fill="#C0392B" d="M36.486,79.4l2.6-5.801l3.5,2.5L36.486,79.4z M39.286,74.4l-1.7,4l4.1-2.301L39.286,74.4z"/>
		<path fill="#DBB352" d="M43.686,68.1l0.201,2.601l2.799,0.3l23.701-23c-2.201-0.5-3-3.2-3-3.2L43.686,68.1z"/>
		<path fill="#F7D752" d="M46.986,71.3L43.785,71l-0.299-2.9l0.1-0.1l23.801-23.6l0.1,0.3c0,0,1,2.6,2.9,3l0.398,0.1L46.986,71.3z
			 M44.285,70.4l2.5,0.3L69.986,48.1c-1.5-0.5-2.4-2.199-2.701-2.899l-23.199,23L44.285,70.4z"/>
		<path fill="#F7D752" d="M43.686,68.1L41.986,68.2v-1.3l23.799-23.7c0,0,0.5,0.399,1.5,1.6L43.686,68.1z"/>
		<path fill="#F7D752" d="M41.785,68.5v-1.7l0.102-0.1l23.898-23.8l0.201,0.1c0,0,0.699,0.4,1.6,1.7l0.1,0.2L43.887,68.4
			L41.785,68.5z M42.285,67v1l1.4-0.1l23.4-23.101c-0.5-0.8-1-1.1-1.199-1.3L42.285,67z"/>
		<path fill="#F7D752" d="M48.686,73l23.301-23.1c-0.1-0.301-1.6-1.801-1.6-1.801L46.887,71l0.398,2.3L48.686,73z"/>
		<path fill="#F7D752" d="M47.186,73.6l-0.5-2.6l23.801-23.3l0.199,0.2c0.201,0.199,1.4,1.6,1.6,1.899l0.102,0.101L72.285,50
			c-0.1,0.2-23,23-23.299,23.3h-0.1L47.186,73.6z M47.086,71.1l0.4,1.9l1.1-0.2c6.6-6.6,21.5-21.399,23.199-22.899
			c-0.199-0.301-0.898-1-1.299-1.5L47.086,71.1z"/>
		<path fill="#E74C3C" d="M75.186,46.7c-0.299,0.3-0.9,0.3-1.199,0l-5.201-5.2c-0.299-0.3-0.299-0.9,0-1.2l2.5-2.5
			c0.301-0.3,0.9-0.3,1.201,0l5.199,5.2c0.301,0.3,0.301,0.9,0,1.2L75.186,46.7z"/>
		<path fill="#E74C3C" d="M77.887,43.1l-5.201-5.3c-0.4-0.399-1.1-0.399-1.5,0l-2.5,2.5c-0.199,0.2-0.299,0.4-0.299,0.8
			c0,0.4,0.1,0.5,0.299,0.801l5.201,5.199c0.199,0.2,0.398,0.301,0.799,0.301c0.201,0,0.5-0.2,0.801-0.2l2.5-2.5
			C78.387,44.1,78.387,43.5,77.887,43.1z M77.486,44.2l-2.5,2.5c-0.201,0.2-0.6,0.2-0.9,0l-5.1-5.3c-0.1-0.101-0.201-0.2-0.201-0.4
			s0.102-0.3,0.201-0.4l2.5-2.5c0.1-0.1,0.299-0.199,0.4-0.199c0.1,0,0.299,0.1,0.398,0.3l5.201,5.2
			C77.686,43.6,77.686,44,77.486,44.2z"/>
		<path fill="#F7D752" d="M68.785,40l-3.199,3v0.1c0.9,3.4,6.1,6.801,6.301,6.9l0.1,0.1l3.799-3.6L68.785,40z"/>
	</g>
</g>
</svg>
