<?xml version="1.0" encoding="utf-8"?>
<!-- Generator: Adobe Illustrator 15.0.0, SVG Export Plug-In . SVG Version: 6.00 Build 0)  -->

<svg version="1.1" id="Layer_1" xmlns="http://www.w3.org/2000/svg" xmlns:xlink="http://www.w3.org/1999/xlink" x="0px" y="0px"
	 width="80px" height="80px" viewBox="0 0 80 80" enable-background="new 0 0 80 80" xml:space="preserve">
<g>
	<g>
		<path fill="#2980B9" d="M1,8.7v62.5h63.9V8.7H1z M61.3,66.3H4.7V18.5h56.6V66.3z"/>
		<path fill="#FFFFFF" d="M14.2,8.6h-1.9v0.8v5.2v0.8h1.9h8.2h1.9v-0.8V9.3V8.6h-1.9H14.2z M22.4,13.6h-8.2V9.3h8.2V13.6z"/>
		<path fill="#FFFFFF" d="M51.8,8.6h-8.2h-1.9v0.8v5.2v0.8h1.9h8.2h1.9v-0.8V9.3V8.6H51.8z M51.8,13.6h-8.2V9.3h8.2V13.6z"/>
		<rect x="14.3" y="2.2" fill="#2980B9" width="8.1" height="11.5"/>
		<rect x="43.7" y="2.2" fill="#2980B9" width="8.1" height="11.5"/>
		<rect x="10.9" y="25" fill="#47ABE2" width="8.6" height="8.6"/>
		<rect x="28.9" y="25" fill="#47ABE2" width="8.6" height="8.6"/>
		<rect x="46.9" y="25.1" fill="#47ABE2" width="8.6" height="8.6"/>
		<rect x="10.9" y="38.1" fill="#E74C3C" width="8.6" height="8.6"/>
		<rect x="28.9" y="38.1" fill="#E74C3C" width="8.6" height="8.6"/>
		<rect x="60.3" y="58.2" fill="#FFFFFF" width="4.6" height="8.6"/>
		<rect x="11" y="51.1" fill="#47ABE2" width="8.6" height="8.6"/>
		<rect x="29" y="51.1" fill="#47ABE2" width="8.6" height="8.6"/>
	</g>
	<g>
		<g>
			<g>
				<path fill="#C0392B" d="M77.2,66.4c-1.7-2.7-4.9-4.9-8.8-6c-2.4,3.4-5,3.7-6.4,3.7c-1.6,0-4.1-0.5-6.4-3.6
					c-3.9,1.2-7.1,3.4-8.7,6.1c-1.3,1-2.3,3.4-1.6,4.5c0.1,0.2,0.3,0.5,0.5,0.7c0,0.3,0.1,0.6,0.2,0.9c1.8,2.6,6.9,4.7,13.2,5.1
					l5.7,0c6.7-0.5,12-2.7,13.6-5.6c0-0.1,0-0.1,0-0.2c0.1-0.1,0.1-0.1,0.2-0.2C79.6,70.3,78.6,67.5,77.2,66.4z"/>
			</g>
		</g>
		<g>
			<path fill="#E5B451" d="M70.7,49.6c0,5.6-4.4,12-8.6,12c-4.2,0-8.6-6.5-8.6-12c0-5.6,4.4-9.1,8.6-9.1
				C66.3,40.5,70.7,44.1,70.7,49.6z"/>
			<g>
				<polygon fill-rule="evenodd" clip-rule="evenodd" fill="#2C3E50" points="62.7,50.5 49.1,44.6 61.6,37.8 75,43.9 				"/>
				<polygon fill-rule="evenodd" clip-rule="evenodd" fill="#C0392B" points="53,56.6 50.4,56.6 51.8,44.9 52.4,44.9 				"/>
			</g>
		</g>
	</g>
</g>
</svg>
