<?xml version="1.0" encoding="utf-8"?>
<!-- Generator: Adobe Illustrator 15.0.0, SVG Export Plug-In . SVG Version: 6.00 Build 0)  -->
 
<svg version="1.1" id="Layer_1" xmlns="http://www.w3.org/2000/svg" xmlns:xlink="http://www.w3.org/1999/xlink" x="0px" y="0px"
	 width="80px" height="80px" viewBox="0 0 80 80" enable-background="new 0 0 80 80" xml:space="preserve">
<g>
	<g>
		<g>
			<path fill="#C0392B" d="M67.5,54.8c-3.1-5.1-9-9.1-16.4-11.2c-4.4,6.2-9.3,6.9-11.9,6.9c-2.9,0-7.6-0.8-11.9-6.7
				c-7.3,2.2-13.1,6.3-16.1,11.4c-2.4,1.9-4.2,6.3-3,8.3c0.3,0.4,0.6,0.9,0.9,1.4c0.1,0.6,0.2,1.1,0.3,1.7
				c3.4,4.9,12.8,8.6,24.4,9.5l10.5,0c12.4-0.9,22.3-5,25.2-10.3c0-0.1,0.1-0.3,0.1-0.4c0.1-0.2,0.2-0.3,0.3-0.4
				C71.9,62.2,70.1,56.8,67.5,54.8z"/>
		</g>
	</g>
	<g>
		<path fill="#E5B451" d="M55.3,23.7c0,10.3-8.1,22.3-16,22.3c-7.9,0-16-12-16-22.3s8.1-16.9,16-16.9C47.2,6.8,55.3,13.4,55.3,23.7z
			"/>
		<g>
			<polygon fill-rule="evenodd" clip-rule="evenodd" fill="#2C3E50" points="40.6,25.4 15.4,14.5 38.5,1.9 63.3,13.2 			"/>
			<polygon fill-rule="evenodd" clip-rule="evenodd" fill="#C0392B" points="22.6,36.7 17.8,36.7 20.4,14.9 21.4,14.9 			"/>
		</g>
	</g>
</g>
<g>
	<g>
		<g>
			<g>
				<path fill="#1ABC9C" d="M35.3,75.8c-0.7,0-1.2-0.5-1.4-1.1l-3.6-16.8c-0.2-0.8,0.3-1.5,1.1-1.7l30.8-6.6l6.6,4.5l2.7,12.6
					c0.2,0.8-0.3,1.5-1.1,1.7l-34.9,7.5C35.5,75.8,35.4,75.8,35.3,75.8z"/>
				<path fill="#FFFFFF" d="M62.1,49.9l6.4,4.3l2.7,12.4c0.1,0.6-0.2,1.1-0.8,1.2l-34.9,7.5c-0.1,0-0.1,0-0.2,0
					c-0.5,0-0.9-0.3-1-0.8l-3.6-16.8c-0.1-0.6,0.2-1.1,0.8-1.2L62.1,49.9 M62.2,49.1l-0.3,0.1l-30.7,6.6c-1,0.2-1.6,1.2-1.4,2.1
					l3.6,16.8c0.2,0.8,0.9,1.4,1.7,1.4c0.1,0,0.3,0,0.4,0l34.9-7.5c1-0.2,1.6-1.2,1.4-2.1l-2.7-12.4L69,53.8l-0.3-0.2l-6.4-4.3
					L62.2,49.1L62.2,49.1z"/>
			</g>
			<polygon fill="#ECF0F1" points="68.4,54.2 62.1,49.9 63.3,55.3 			"/>
			<polygon fill="#16A085" points="57,51 63.3,55.3 62.1,49.9 			"/>
		</g>
		<g>
			<g>
				<path fill="#1ABC9C" d="M33.9,79.4c-0.8,0-1.5-0.7-1.5-1.5V59.5c0-0.8,0.7-1.5,1.5-1.5H68l6,6.2V78c0,0.8-0.7,1.5-1.5,1.5
					L33.9,79.4L33.9,79.4z"/>
				<path fill="#FFFFFF" d="M67.8,58.3l5.8,5.9v13.6c0,0.6-0.5,1.1-1.1,1.1H33.9c-0.6,0-1.1-0.5-1.1-1.1V59.5c0-0.6,0.5-1.1,1.1-1.1
					h33.9 M68.2,57.6h-0.3h-34c-1,0-1.9,0.8-1.9,1.9v18.4c0,1,0.8,1.9,1.9,1.9h38.6c1,0,1.9-0.8,1.9-1.9V64.3V64l-0.2-0.2l-5.8-5.9
					L68.2,57.6L68.2,57.6z"/>
			</g>
			<polygon fill="#ECF0F1" points="73.6,64.2 67.9,58.4 67.9,64.2 			"/>
			<polygon fill="#16A085" points="62.2,58.4 67.9,64.2 67.9,58.4 			"/>
		</g>
		<circle fill="#ECF0F1" cx="52.1" cy="70.7" r="4.5"/>
		<circle fill="#16A085" cx="52.1" cy="70.7" r="3.5"/>
		<g>
			<rect x="36.6" y="69" fill="#FFFFFF" width="10" height="1"/>
		</g>
		<g>
			<rect x="36.6" y="72" fill="#FFFFFF" width="10" height="1"/>
		</g>
		<g>
			<rect x="58.8" y="69" fill="#FFFFFF" width="10" height="1"/>
		</g>
		<g>
			<rect x="58.8" y="72" fill="#FFFFFF" width="10" height="1"/>
		</g>
		<rect x="37.1" y="61.6" fill="#FFFFFF" width="4.9" height="3.9"/>
	</g>
</g>
</svg>
